<svg width="24" height="24" viewBox="0 0 24 24" fill="none" xmlns="http://www.w3.org/2000/svg">
<g clip-path="url(#clip0)">
<path d="M20.25 2.25007H17.25V1.50003C17.25 1.05007 16.95 0.75 16.5 0.75C16.0499 0.75 15.75 1.04998 15.75 1.50003V2.25007H8.25004V1.50003C8.25004 1.05007 7.95006 0.75 7.5 0.75C7.05004 0.75 6.74997 1.04998 6.74997 1.50003V2.25007H3.75C1.64997 2.25007 0 3.90004 0 6.00007V19.5001C0 21.6001 1.64997 23.2501 3.75 23.2501H20.25C22.35 23.2501 24 21.6001 24 19.5001V6.00007C24 3.90004 22.35 2.25007 20.25 2.25007ZM1.49998 6.00007C1.49998 4.80007 2.55 3.75005 3.75 3.75005H6.74997V4.50009C6.74997 4.95006 7.04995 5.25012 7.5 5.25012C7.94997 5.25012 8.25004 4.95014 8.25004 4.50009V3.75005H15.75V4.50009C15.75 4.95006 16.05 5.25012 16.5001 5.25012C16.9501 5.25012 17.2501 4.95014 17.2501 4.50009V3.75005H20.2501C21.4501 3.75005 22.5001 4.80007 22.5001 6.00007V8.25009H1.49998V6.00007ZM22.5 19.5001C22.5 20.7001 21.45 21.7501 20.25 21.7501H3.75C2.55 21.7501 1.49998 20.7001 1.49998 19.5001V9.75008H22.5V19.5001Z" fill="#935641"/>
<path d="M5.24998 19.5002C5.69995 19.5002 6.00002 19.3502 6.3 19.0502C6.59998 18.7503 6.74997 18.3002 6.74997 18.0002C6.74997 17.7002 6.59998 17.2502 6.3 16.9502C5.70004 16.3503 4.80001 16.3503 4.19997 16.9502C3.89999 17.2502 3.75 17.5502 3.75 18.0002C3.75 18.3002 3.89999 18.7503 4.19997 19.0502C4.49995 19.3502 4.80001 19.5002 5.24998 19.5002Z" fill="#935641"/>
<path d="M5.24998 15C5.69995 15 6.00002 14.85 6.3 14.55C6.59998 14.25 6.74997 13.8 6.74997 13.5C6.74997 13.2 6.59998 12.7499 6.3 12.45C5.70004 11.85 4.80001 11.85 4.19997 12.45C3.89999 12.7499 3.75 13.0499 3.75 13.5C3.75 13.95 3.89999 14.25 4.19997 14.55C4.49995 14.85 4.80001 15 5.24998 15Z" fill="#935641"/>
<path d="M9.74998 19.5002C10.2 19.5002 10.5 19.3502 10.8 19.0502C11.1 18.7503 11.25 18.3002 11.25 18.0002C11.25 17.7002 11.1 17.2502 10.8 16.9502C10.2 16.3503 9.30001 16.3503 8.69997 16.9502C8.39999 17.2502 8.25 17.7002 8.25 18.0002C8.25 18.3002 8.39999 18.7503 8.69997 19.0502C8.99995 19.3502 9.30001 19.5002 9.74998 19.5002Z" fill="#935641"/>
<path d="M9.74998 15C10.2 15 10.5 14.85 10.8 14.55C11.1 14.25 11.25 13.8 11.25 13.5C11.25 13.2 11.1 12.7499 10.8 12.45C10.2 11.85 9.30001 11.85 8.69997 12.45C8.39999 12.7499 8.25 13.2 8.25 13.5C8.25 13.8 8.39999 14.25 8.69997 14.55C8.99995 14.85 9.30001 15 9.74998 15Z" fill="#935641"/>
<path d="M14.25 19.5002C14.7 19.5002 15 19.3502 15.3 19.0502C15.6 18.7503 15.75 18.4503 15.75 18.0002C15.75 17.5502 15.6 17.2502 15.3 16.9502C14.7 16.3503 13.8 16.3503 13.2 16.9502C12.9 17.2502 12.75 17.7002 12.75 18.0002C12.75 18.3002 12.9 18.7503 13.2 19.0502C13.4999 19.3502 13.8 19.5002 14.25 19.5002Z" fill="#935641"/>
<path d="M14.25 15C14.7 15 15 14.85 15.3 14.55C15.6 14.25 15.75 13.95 15.75 13.5C15.75 13.2 15.6 12.7499 15.3 12.45C14.7 11.85 13.8 11.85 13.2 12.45C12.9 12.7499 12.75 13.2 12.75 13.5C12.75 13.8 12.9 14.25 13.2 14.55C13.4999 14.85 13.8 15 14.25 15Z" fill="#935641"/>
<path d="M18.75 19.5002C19.2 19.5002 19.5 19.3502 19.8 19.0502C20.1 18.7503 20.25 18.3002 20.25 18.0002C20.25 17.7002 20.1 17.2502 19.8 16.9502C19.2 16.3503 18.3 16.3503 17.7 16.9502C17.4 17.2502 17.25 17.5502 17.25 18.0002C17.25 18.3002 17.4 18.7503 17.7 19.0502C17.9999 19.3502 18.3 19.5002 18.75 19.5002Z" fill="#935641"/>
<path d="M18.75 15C19.2 15 19.5 14.85 19.8 14.55C20.1 14.25 20.25 13.95 20.25 13.5C20.25 13.2 20.1 12.7499 19.8 12.45C19.2 11.85 18.3 11.85 17.7 12.45C17.4 12.7499 17.25 13.2 17.25 13.5C17.25 13.8 17.4 14.25 17.7 14.55C17.9999 14.85 18.3 15 18.75 15Z" fill="#935641"/>
</g>
<defs>
<clipPath id="clip0">
<rect width="24" height="24" fill="white"/>
</clipPath>
</defs>
</svg>
