<svg width="20" height="20" viewBox="0 0 20 20" fill="none" xmlns="http://www.w3.org/2000/svg">
<path d="M9.62976 0C5.78374 0 2.65479 3.2493 2.65479 7.2432C2.65479 12.1998 8.8967 19.4763 9.16246 19.7836C9.41208 20.0723 9.84789 20.0718 10.0971 19.7836C10.3628 19.4763 16.6047 12.1998 16.6047 7.2432C16.6047 3.2493 13.4757 0 9.62976 0ZM9.62976 10.8875C7.69473 10.8875 6.12051 9.25266 6.12051 7.2432C6.12051 5.23375 7.69477 3.59898 9.62976 3.59898C11.5648 3.59898 13.139 5.23379 13.139 7.24324C13.139 9.2527 11.5648 10.8875 9.62976 10.8875Z" fill="#333333"/>
</svg>
