<svg width="24" height="24" viewBox="0 0 24 24" fill="none" xmlns="http://www.w3.org/2000/svg">
<path d="M20.4853 3.51473C18.2188 1.24823 15.2053 0 12 0C8.79469 0 5.78123 1.24828 3.51473 3.51473C1.24823 5.78119 0 8.79469 0 12C0 15.2053 1.24823 18.2188 3.51473 20.4853C5.78119 22.7518 8.79469 24 12 24C15.2053 24 18.2188 22.7518 20.4853 20.4853C22.7518 18.2188 24 15.2053 24 12C24 8.79469 22.7518 5.78119 20.4853 3.51473ZM12 22.0611C6.45234 22.0611 1.93894 17.5477 1.93894 12C1.93894 6.45234 6.45234 1.93894 12 1.93894C17.5477 1.93894 22.0611 6.45234 22.0611 12C22.0611 17.5477 17.5477 22.0611 12 22.0611Z" fill="#935641"/>
<path d="M15.9947 14.6238L12.9695 11.5986V5.38182C12.9695 4.84642 12.5354 4.41235 12 4.41235C11.4646 4.41235 11.0305 4.84642 11.0305 5.38182V12.0002C11.0305 12.2573 11.1327 12.5039 11.3145 12.6857L14.6236 15.9949C14.8129 16.1842 15.061 16.2788 15.3091 16.2788C15.5572 16.2788 15.8054 16.1842 15.9947 15.9949C16.3733 15.6162 16.3733 15.0024 15.9947 14.6238Z" fill="#935641"/>
</svg>
