<svg width="24" height="24" viewBox="0 0 24 24" fill="none" xmlns="http://www.w3.org/2000/svg">
<path d="M21.5475 7.00008H18.2571C18.1228 7.00008 17.991 7.0365 17.8757 7.10545C17.7605 7.1744 17.6661 7.2733 17.6025 7.39164C17.6025 7.39164 16.2902 9.80857 15.8686 10.6226C14.7346 12.8126 14.0002 12.1251 14.0002 11.1087V7.60425C14.0002 7.31141 13.8839 7.03056 13.6768 6.82349C13.4697 6.61642 13.1889 6.50008 12.896 6.50008H10.422C10.0851 6.47503 9.74737 6.53653 9.4409 6.67874C9.13444 6.82094 8.86942 7.03913 8.67101 7.31258C8.67101 7.31258 9.92727 7.10946 9.92727 8.80216C9.92727 9.2219 9.94889 10.4294 9.96859 11.4422C9.97231 11.5914 9.93014 11.7382 9.84778 11.8627C9.76542 11.9872 9.64684 12.0835 9.50805 12.1385C9.36925 12.1934 9.21693 12.2045 9.07164 12.1702C8.92635 12.1359 8.7951 12.0578 8.69559 11.9465C7.68295 10.5381 6.84414 9.01248 6.19739 7.40288C6.14185 7.28248 6.05294 7.18053 5.9412 7.10913C5.82946 7.03774 5.69959 6.99989 5.56698 7.00008C4.85338 7.00008 3.4254 7.00008 2.57737 7.00008C2.49514 6.99953 2.414 7.01894 2.34092 7.05666C2.26785 7.09437 2.20502 7.14927 2.15784 7.21662C2.11066 7.28398 2.08054 7.36178 2.07006 7.44335C2.05958 7.52491 2.06906 7.6078 2.09768 7.68489C3.00547 10.175 6.91595 18.0001 11.3794 18.0001H13.258C13.4548 18.0001 13.6436 17.9219 13.7828 17.7827C13.922 17.6435 14.0002 17.4547 14.0002 17.2579V16.1235C14.0002 15.9812 14.0418 15.842 14.12 15.7231C14.1981 15.6041 14.3093 15.5107 14.4399 15.4542C14.5705 15.3977 14.7148 15.3806 14.855 15.4051C14.9952 15.4296 15.1252 15.4946 15.2289 15.592L17.4775 17.7047C17.6794 17.8944 17.9461 18.0001 18.2232 18.0001H21.176C22.6001 18.0001 22.6001 17.0118 21.8237 16.2471C21.2772 15.709 19.3054 13.6305 19.3054 13.6305C19.1365 13.4556 19.0358 13.226 19.0214 12.9833C19.007 12.7406 19.08 12.5007 19.227 12.3071C19.8644 11.4683 20.9069 10.0953 21.349 9.50715C21.9533 8.70321 23.0471 7.00008 21.5475 7.00008Z" fill="white"/>
</svg>
