<svg width="26" height="25" viewBox="0 0 26 25" fill="none" xmlns="http://www.w3.org/2000/svg">
<path d="M25.7607 18.217C25.5541 18.0183 25.2189 18.0183 25.0125 18.217L19.7646 23.2631V0.508747C19.7646 0.227834 19.5276 0 19.2355 0C18.9433 0 18.7064 0.227834 18.7064 0.508747V23.263L13.4584 18.2169C13.2518 18.0183 12.9167 18.0182 12.7101 18.217C12.5035 18.4156 12.5035 18.7377 12.7102 18.9364L18.8614 24.8509C18.9647 24.9502 19.1001 24.9999 19.2355 24.9999C19.3708 24.9999 19.5063 24.9502 19.6095 24.8509L25.7607 18.9363C25.9674 18.7377 25.9674 18.4156 25.7607 18.217Z" fill="#E16C5B"/>
<path d="M0.613325 1.0175H16.4983C16.7905 1.0175 17.0274 0.789661 17.0274 0.508748C17.0274 0.227834 16.7905 0 16.4983 0H0.613325C0.321176 0 0.0842285 0.227834 0.0842285 0.508748C0.0842285 0.789661 0.321176 1.0175 0.613325 1.0175Z" fill="#E16C5B"/>
<path d="M0.613325 6.97221H16.4983C16.7905 6.97221 17.0274 6.74437 17.0274 6.46346C17.0274 6.18255 16.7905 5.95471 16.4983 5.95471H0.613325C0.321176 5.95471 0.0842285 6.18255 0.0842285 6.46346C0.0842285 6.74437 0.321176 6.97221 0.613325 6.97221Z" fill="#E16C5B"/>
<path d="M0.613325 12.9269H16.4983C16.7905 12.9269 17.0274 12.699 17.0274 12.4181C17.0274 12.1372 16.7905 11.9094 16.4983 11.9094H0.613325C0.321176 11.9094 0.0842285 12.1372 0.0842285 12.4181C0.0842285 12.699 0.321176 12.9269 0.613325 12.9269Z" fill="#E16C5B"/>
<path d="M10.9732 17.8642H0.613325C0.321176 17.8642 0.0842285 18.092 0.0842285 18.373C0.0842285 18.6539 0.321176 18.8817 0.613325 18.8817H10.9732C11.2654 18.8817 11.5023 18.6539 11.5023 18.373C11.5023 18.092 11.2655 17.8642 10.9732 17.8642Z" fill="#E16C5B"/>
<path d="M10.9732 23.8188H0.613325C0.321176 23.8188 0.0842285 24.0467 0.0842285 24.3276C0.0842285 24.6085 0.321176 24.8363 0.613325 24.8363H10.9732C11.2654 24.8363 11.5023 24.6085 11.5023 24.3276C11.5023 24.0467 11.2655 23.8188 10.9732 23.8188Z" fill="#E16C5B"/>
</svg>
